<svg xmlns="http://www.w3.org/2000/svg" viewBox="0 -0.5 40 40" shape-rendering="crispEdges">
<metadata>Made with Pixels to Svg https://codepen.io/shshaw/pen/XbxvNj</metadata>
<path stroke="#fbf236" d="M15 3h2M18 3h2M13 4h1M15 4h2M18 4h2M21 4h1M12 5h2M15 5h2M18 5h2M21 5h2M12 6h5M18 6h5M12 7h11M12 8h11M13 9h9" />
<path stroke="#df7126" d="M17 3h1M14 4h1M17 4h1M20 4h1M14 5h1M17 5h1M20 5h1M17 6h1M11 7h1M23 7h1M11 8h1M23 8h1M12 9h1M22 9h1M13 10h9" />
<path stroke="#222034" d="M11 9h1M23 9h2M11 10h1M23 10h1M25 10h1M11 11h1M23 11h1M26 11h1M11 12h1M23 12h5M11 13h1M27 13h1M11 14h1M27 14h1M11 15h1M27 15h1M11 16h1M27 16h1M11 17h1M24 17h4M11 18h1M24 18h1M27 18h1M11 19h1M25 19h1M28 19h2M11 20h1M26 20h1M30 20h1M11 21h1M27 21h1M31 21h3M11 22h1M26 22h1M34 22h1M11 23h1M25 23h1M29 23h1M34 23h1M11 24h1M24 24h1M28 24h2M33 24h1M11 25h1M23 25h1M27 25h1M30 25h1M32 25h1M11 26h1M22 26h1M26 26h2M31 26h1M11 27h1M21 27h1M25 27h1M27 27h1M11 28h1M20 28h1M24 28h1M27 28h1M11 29h1M19 29h1M23 29h1M27 29h1M11 30h1M18 30h1M22 30h1M27 30h1M11 31h1M17 31h1M21 31h1M27 31h1M11 32h6M20 32h8M15 33h1M19 33h1M14 34h1M18 34h1M14 35h1M17 35h1M15 36h2" />
<path stroke="#847e87" d="M25 18h2M26 19h2M27 20h3M28 21h3M27 22h7M26 23h3M30 23h4M25 24h3M30 24h3M24 25h3M31 25h1M23 26h3M24 27h1" />
<path stroke="#663931" d="M22 27h2M21 28h3M20 29h3M19 30h3M18 31h3M17 32h3M16 33h3M15 34h3M15 35h2" />
</svg>