<?xml version="1.0" encoding="utf-8"?>
<svg viewBox="0 0 40 40" xmlns="http://www.w3.org/2000/svg">
  <path d="M 25.24 14.24 C 25.24 14.213 25.234 14.187 25.224 14.163 C 25.21 14.126 25.187 14.097 25.161 14.073 L 21.001 9.913 C 20.954 9.867 20.891 9.837 20.818 9.837 C 20.818 9.837 20.818 9.837 20.812 9.837 L 6.53 9.837 C 6.247 9.837 6.013 10.067 6.013 10.353 L 6.013 35.229 C 6.013 35.513 6.247 35.746 6.53 35.746 L 24.731 35.746 C 25.014 35.746 25.247 35.513 25.247 35.229 L 25.247 14.26 C 25.247 14.26 25.24 14.246 25.24 14.24 Z M 21.078 10.717 L 24.361 14 L 21.078 14 L 21.078 10.717 Z M 24.731 35.229 L 6.53 35.229 L 6.53 10.35 L 20.562 10.35 L 20.562 14.257 C 20.562 14.4 20.678 14.516 20.822 14.516 L 24.731 14.516 L 24.731 35.229 Z"/>
  <path class="cls-1" d="M 457.24 245.221 L 457.24 307.361 L 402.63 307.361 L 402.63 232.721 L 444.73 232.721 L 444.73 244.441 C 444.73 244.871 445.08 245.221 445.51 245.221 L 457.24 245.221 Z" style="fill: rgb(255, 255, 255);"/>
  <path class="cls-4" d="M 19.978 9.247 L 19.841 9.247 L 19.841 8.303 C 19.841 7.43 19.665 6.58 19.305 5.76 C 19.298 5.743 19.285 5.723 19.268 5.707 L 19.235 5.666 L 19.235 5.136 C 19.235 4.787 19.122 4.437 18.908 4.153 L 17.911 2.827 C 17.802 2.683 17.638 2.597 17.459 2.597 C 17.332 2.597 17.215 2.637 17.116 2.71 C 17.065 2.747 17.022 2.797 16.978 2.863 L 16.909 2.977 L 16.795 2.907 C 16.458 2.703 16.089 2.527 15.699 2.38 L 15.609 2.327 L 15.609 2.23 C 15.609 1.77 15.315 1.363 14.879 1.22 C 14.442 1.074 13.989 1 13.529 1 C 13.069 1 12.616 1.074 12.176 1.22 L 12.133 1.233 C 11.719 1.39 11.446 1.787 11.446 2.25 L 11.446 2.347 L 11.356 2.38 C 10.966 2.523 10.596 2.7 10.259 2.907 L 10.146 2.977 L 10.072 2.863 C 10.032 2.797 9.989 2.75 9.939 2.71 C 9.84 2.637 9.723 2.597 9.596 2.597 C 9.416 2.597 9.25 2.68 9.143 2.827 L 8.147 4.153 C 7.933 4.437 7.819 4.783 7.819 5.136 L 7.819 5.677 L 7.783 5.713 C 7.763 5.736 7.746 5.76 7.74 5.78 C 7.39 6.583 7.213 7.433 7.213 8.306 L 7.213 9.25 L 7.077 9.25 C 6.484 9.25 6 9.733 6 10.327 C 6 10.92 6.484 11.4 7.077 11.4 L 19.975 11.4 C 20.565 11.4 21.048 10.917 21.048 10.327 C 21.048 9.736 20.565 9.25 19.975 9.25 L 19.978 9.247 Z M 17.422 3.06 L 18.481 4.473 C 18.622 4.663 18.701 4.897 18.701 5.133 L 18.701 6.19 C 18.701 6.54 18.415 6.83 18.062 6.83 C 17.709 6.83 17.422 6.54 17.422 6.19 L 17.422 3.06 Z M 11.979 2.233 C 11.979 2.003 12.126 1.8 12.343 1.727 C 12.726 1.6 13.122 1.533 13.526 1.533 C 13.929 1.533 14.326 1.6 14.706 1.727 C 14.922 1.797 15.069 2 15.069 2.23 L 15.069 5.28 C 15.069 6.133 14.376 6.83 13.523 6.83 C 12.669 6.83 11.972 6.137 11.972 5.28 L 11.972 2.233 L 11.979 2.233 Z M 8.353 5.133 C 8.353 4.897 8.433 4.663 8.573 4.473 L 9.633 3.06 L 9.633 6.19 C 9.633 6.54 9.346 6.83 8.993 6.83 C 8.639 6.83 8.353 6.54 8.353 6.19 L 8.353 5.133 Z M 7.75 8.303 C 7.75 7.89 7.796 7.463 7.893 7.033 L 7.95 6.777 L 8.127 6.973 C 8.353 7.223 8.659 7.363 8.993 7.363 C 9.64 7.363 10.166 6.836 10.166 6.19 L 10.166 3.607 L 10.226 3.567 C 10.553 3.337 10.902 3.143 11.256 2.993 L 11.446 2.913 L 11.446 5.283 C 11.446 6.433 12.379 7.366 13.529 7.366 C 14.679 7.366 15.609 6.433 15.609 5.283 L 15.609 2.913 L 15.799 2.993 C 16.155 3.147 16.502 3.34 16.829 3.567 L 16.885 3.607 L 16.885 6.19 C 16.885 6.836 17.412 7.363 18.062 7.363 C 18.395 7.363 18.701 7.223 18.928 6.973 L 19.105 6.777 L 19.162 7.033 C 19.258 7.463 19.305 7.89 19.305 8.303 L 19.305 9.247 L 7.746 9.247 L 7.746 8.303 L 7.75 8.303 Z M 19.982 10.86 L 7.077 10.86 C 6.777 10.86 6.537 10.617 6.537 10.32 C 6.537 10.023 6.78 9.78 7.077 9.78 L 19.975 9.78 C 20.272 9.78 20.515 10.023 20.515 10.32 C 20.515 10.617 20.272 10.86 19.975 10.86 L 19.982 10.86 Z" style="fill-rule: evenodd;"/>
  <path class="cls-3" d="M 20.515 10.323 C 20.515 10.62 20.272 10.863 19.975 10.863 L 7.077 10.863 C 6.777 10.863 6.537 10.62 6.537 10.323 C 6.537 10.027 6.78 9.783 7.077 9.783 L 19.975 9.783 C 20.272 9.783 20.515 10.027 20.515 10.323 Z" style="fill: rgb(255, 189, 8); fill-rule: evenodd;"/>
  <path class="cls-3" d="M 18.701 5.133 L 18.701 6.19 C 18.701 6.54 18.415 6.83 18.062 6.83 C 17.709 6.83 17.422 6.54 17.422 6.19 L 17.422 3.06 L 18.481 4.473 C 18.622 4.663 18.701 4.897 18.701 5.133 Z" style="fill: rgb(255, 189, 8); fill-rule: evenodd;"/>
  <path class="cls-3" d="M 15.072 2.23 L 15.072 5.28 C 15.072 6.133 14.379 6.83 13.526 6.83 C 12.673 6.83 11.976 6.137 11.976 5.28 L 11.976 2.233 C 11.976 2.003 12.123 1.8 12.34 1.727 C 12.723 1.6 13.119 1.533 13.523 1.533 C 13.925 1.533 14.323 1.6 14.702 1.727 C 14.919 1.797 15.065 2 15.065 2.23 L 15.072 2.23 Z" style="fill: rgb(255, 189, 8); fill-rule: evenodd;"/>
  <path class="cls-3" d="M 9.63 3.06 L 9.63 6.19 C 9.63 6.54 9.343 6.83 8.99 6.83 C 8.636 6.83 8.349 6.54 8.349 6.19 L 8.349 5.133 C 8.349 4.897 8.43 4.663 8.57 4.473 L 9.63 3.06 Z" style="fill: rgb(255, 189, 8); fill-rule: evenodd;"/>
  <path class="cls-3" d="M 19.305 8.306 L 19.305 9.25 L 7.746 9.25 L 7.746 8.306 C 7.746 7.893 7.793 7.467 7.89 7.037 L 7.946 6.78 L 8.123 6.976 C 8.349 7.226 8.656 7.366 8.99 7.366 C 9.636 7.366 10.163 6.84 10.163 6.193 L 10.163 3.61 L 10.223 3.57 C 10.549 3.34 10.899 3.147 11.253 2.996 L 11.442 2.917 L 11.442 5.287 C 11.442 6.437 12.376 7.37 13.526 7.37 C 14.676 7.37 15.605 6.437 15.605 5.287 L 15.605 2.917 L 15.796 2.996 C 16.152 3.15 16.498 3.343 16.826 3.57 L 16.882 3.61 L 16.882 6.193 C 16.882 6.84 17.409 7.366 18.058 7.366 C 18.392 7.366 18.698 7.226 18.925 6.976 L 19.102 6.78 L 19.158 7.037 C 19.255 7.467 19.301 7.893 19.301 8.306 L 19.305 8.306 Z" style="fill: rgb(255, 189, 8); fill-rule: evenodd;"/>
  <g transform="matrix(0.3332889974117279, 0, 0, 0.333327978849411, 0.05421700328588486, 0.16666999459266663)">
    <path id="Path_1263" data-name="Path 1263" d="m100.95,76.46c-.07-.06-.14-.11-.21-.18l-.38-.31c-.83-.68-1.63-1.37-2.46-2.01-.38-.31-.81-.57-1.26-.76-1.08-.5-2.34-.35-3.26.39l-.09-.04c.2-.37.32-.78.36-1.2.07-1.17-.45-2.3-1.37-3.02-.46-.39-.92-.78-1.39-1.16l-.35-.28c-.59-.48-1.18-.96-1.78-1.42-.72-.57-1.44-1.13-2.14-1.72-7.67-6.32-18.23-2.76-20.41-1.54-.32.18-1.04.58-.93,1.37.1.78.77,1.1,3.57,2.47,1.94.88,3.8,1.92,5.57,3.11h.03s-.02.03-.02.03c-1.11,1.22-1.11,3.08-.03,4.32l.62.51-11.85,14.36c-.98-.71-2.33-.59-3.17.28-8.52,9.36-13.34,15.03-14.4,16.41-1.72,1.87-1.59,4.79.29,6.51.05.05.09.09.14.13.28.25,1.26,1.08,2.27,1.9,1.01.84,2.01,1.64,2.31,1.87.92.73,2.08,1.09,3.25,1.01,1.32-.19,2.52-.85,3.37-1.88.96-1.08,5.65-6.93,13.32-17.26.67-.9.6-2.16-.18-2.98l11.87-14.41.33.27s.05.05.07.05c.02.02.05.05.07.06,1.46,1.14,3.55.88,4.69-.57-1.16,1.53-.9,3.73.62,4.94.04.03.07.05.1.08.96.79,1.91,1.58,2.88,2.36,1.47,1.3,3.73,1.16,5.03-.31.06-.07.12-.15.18-.22,1.68-2.02,3.35-4.05,5.03-6.1,1.32-1.48,1.19-3.76-.29-5.08Zm-31.98,20.66s0,.02-.01.03c-7.64,10.29-12.28,16.07-13.22,17.13-.93,1.21-2.65,1.47-3.89.59-.3-.23-1.26-1-2.23-1.82-.98-.81-1.92-1.59-2.18-1.84-1.13-.87-1.34-2.48-.47-3.61.08-.11.18-.22.29-.32.86-1.13,5.48-6.6,14.49-16.38.09,0,.18.02.26.08l6.89,5.68c.16.1.19.32.09.46Zm-.09-3.08l-4.1-3.38,11.8-14.36,4.11,3.39-11.81,14.35Zm30.96-13.97c-.05.06-.1.14-.16.2-1.67,2.05-3.34,4.07-5.01,6.1-.49.72-1.46.9-2.18.42-.07-.05-.14-.11-.2-.17-.96-.77-1.91-1.55-2.85-2.34-.73-.48-.94-1.46-.46-2.2.05-.07.11-.14.16-.2.68-.85.61-2.06-.18-2.81-.41-.37-.97-.56-1.52-.5-.51.05-.97.28-1.32.66-.36.4-1.3,1.24-2.09.58-.02-.02-.05-.04-.07-.05-.02-.02-.04-.04-.07-.06l-8.18-6.74c-.18-.14-.09-.88.42-1.61.67-.72.63-1.83-.09-2.5-.1-.1-.21-.18-.34-.25-1.88-1.28-3.86-2.4-5.93-3.33-.48-.24-1-.49-1.46-.73,3.11-1.17,11.12-3.08,17.05,1.81.72.58,1.44,1.16,2.17,1.74.58.47,1.18.93,1.75,1.41l.34.28c.46.37.9.73,1.33,1.11.46.3.72.8.7,1.35-.03.17-.08.32-.16.46-.46.86-.18,1.93.62,2.46.67.71,1.79.76,2.5.09,0,0,0,0,.02-.01.25-.22.58-.38,1.29-.11.27.11.51.27.74.46.82.65,1.62,1.32,2.42,1.98l.38.31c.72.5.89,1.5.39,2.22Z"/>
    <path class="cls-2" d="m68.96,97.12s0,.02-.01.03c-7.64,10.29-12.28,16.07-13.22,17.13-.93,1.21-2.65,1.47-3.89.59-.3-.23-1.26-1-2.23-1.82-.98-.81-1.92-1.59-2.18-1.84-1.13-.87-1.34-2.48-.47-3.61.08-.11.18-.22.29-.32.86-1.13,5.48-6.6,14.49-16.38.09,0,.18.02.26.08l6.89,5.68c.16.1.19.32.09.46Z" style="fill: rgb(205, 40, 0);"/>
    <polygon class="cls-5" points="80.68 79.68 68.87 94.03 64.77 90.65 76.56 76.29 80.68 79.68" style="fill: rgb(133, 128, 136);"/>
    <path class="cls-5" d="m99.83,80.06c-.05.06-.1.14-.16.2-1.67,2.05-3.34,4.07-5.01,6.1-.49.72-1.46.9-2.18.42-.07-.05-.14-.11-.2-.17-.96-.77-1.91-1.55-2.85-2.34-.73-.48-.94-1.46-.46-2.2.05-.07.11-.14.16-.2.68-.85.61-2.06-.18-2.81-.41-.37-.97-.56-1.52-.5-.51.05-.97.28-1.32.66-.36.4-1.3,1.24-2.09.58-.02-.02-.05-.04-.07-.05-.02-.02-.04-.04-.07-.06l-8.18-6.74c-.18-.14-.09-.88.42-1.61.67-.72.63-1.83-.09-2.5-.1-.1-.21-.18-.34-.25-1.88-1.28-3.86-2.4-5.93-3.33-.48-.24-1-.49-1.46-.73,3.11-1.17,11.12-3.08,17.05,1.81.72.58,1.44,1.16,2.17,1.74.58.47,1.18.93,1.75,1.41l.34.28c.46.37.9.73,1.33,1.11.46.3.72.8.7,1.35-.03.17-.08.32-.16.46-.46.86-.18,1.93.62,2.46.67.71,1.79.76,2.5.09,0,0,0,0,.02-.01.25-.22.58-.38,1.29-.11.27.11.51.27.74.46.82.65,1.62,1.32,2.42,1.98l.38.31c.72.5.89,1.5.39,2.22Z" style="fill: rgb(133, 128, 136);"/>
  </g>
  <g transform="matrix(0.3332889974117279, 0, 0, 0.333327978849411, 0.05421700328588486, 0.16666999459266663)">
    <path d="m36.24,61.28c0,.1,0,.18,0,.25,0,.07-.02.13-.03.18-.01.05-.03.09-.05.13-.02.04-.05.08-.1.12s-.13.1-.25.18c-.12.07-.28.14-.46.21-.18.07-.39.12-.62.16s-.48.07-.76.07c-.53,0-1.01-.08-1.43-.25-.43-.16-.79-.41-1.09-.73-.3-.32-.53-.73-.69-1.22s-.24-1.05-.24-1.7.09-1.24.26-1.75c.17-.51.42-.94.73-1.28.32-.35.69-.61,1.13-.79.44-.18.93-.27,1.46-.27.22,0,.42.02.62.05.2.04.38.08.55.14.17.06.32.12.46.2.13.08.23.14.28.19s.09.1.11.13c.02.04.04.08.05.14.01.06.02.12.03.2s0,.17,0,.28c0,.12,0,.22-.01.3,0,.08-.02.15-.04.2-.02.05-.04.09-.07.11-.03.02-.06.04-.1.04-.06,0-.14-.03-.23-.11-.09-.07-.21-.15-.36-.23s-.32-.16-.52-.23-.44-.1-.72-.1c-.31,0-.58.06-.82.19-.24.12-.45.3-.61.54-.17.23-.3.51-.39.85-.09.33-.13.7-.13,1.12,0,.45.05.85.14,1.18.09.33.23.61.4.82s.38.38.63.48c.24.11.52.16.83.16.28,0,.52-.03.72-.1.2-.07.38-.14.52-.22s.26-.15.36-.22.17-.1.22-.1c.04,0,.07,0,.1.02.02.02.04.05.06.1.02.05.03.12.04.2,0,.09.01.2.01.34Z"/>
    <path d="m42.85,59.53c0,.45-.06.87-.18,1.24-.12.37-.3.7-.54.97-.24.27-.55.48-.91.63-.37.15-.79.22-1.28.22s-.89-.07-1.24-.2c-.35-.13-.64-.32-.87-.57-.23-.25-.4-.56-.51-.93s-.17-.79-.17-1.25.06-.87.18-1.25c.12-.38.3-.7.55-.97s.55-.48.91-.62c.36-.15.79-.22,1.28-.22s.89.06,1.24.19c.35.13.64.32.87.57.23.25.4.56.51.93.11.37.17.79.17,1.26Zm-1.55.06c0-.26-.02-.51-.06-.73s-.11-.41-.21-.58c-.1-.16-.23-.29-.4-.38-.17-.09-.37-.14-.62-.14-.22,0-.42.04-.59.12s-.3.2-.41.36-.19.35-.24.57-.08.47-.08.76c0,.26.02.51.07.73.04.22.12.41.21.58.1.16.23.29.4.38s.37.13.62.13c.23,0,.42-.04.59-.12s.3-.2.41-.36c.11-.16.19-.34.24-.56s.08-.47.08-.76Z"/>
    <path d="m49.28,62.25s0,.08-.03.11c-.02.03-.05.05-.1.07-.05.02-.11.03-.19.04-.08,0-.18.01-.3.01-.13,0-.23,0-.31-.01-.08,0-.14-.02-.19-.04-.05-.02-.09-.04-.11-.07-.02-.03-.03-.07-.03-.11v-.59c-.27.29-.56.52-.86.69-.3.16-.63.24-1,.24-.41,0-.75-.08-1.03-.24s-.51-.37-.69-.64c-.18-.27-.31-.58-.39-.93-.08-.36-.12-.73-.12-1.13,0-.47.05-.9.15-1.28s.25-.7.45-.97c.19-.27.44-.47.73-.62.29-.14.63-.22,1-.22.3,0,.57.06.81.18.24.12.48.3.72.54v-2.89s.01-.08.03-.11.06-.06.12-.08.13-.04.23-.05.22-.02.36-.02.27,0,.36.02c.1.01.17.03.23.05.06.02.1.05.12.08.02.03.04.07.04.11v7.84Zm-1.49-3.56c-.22-.27-.42-.48-.62-.62-.2-.14-.4-.22-.62-.22-.2,0-.36.05-.51.15-.14.1-.26.23-.34.39-.09.16-.15.35-.19.55-.04.2-.06.41-.06.62,0,.22.02.44.05.65.04.21.09.4.18.56.08.17.19.3.33.4.13.1.31.15.51.15.1,0,.2-.02.3-.04.1-.03.2-.08.3-.15.1-.07.21-.16.31-.27.11-.11.22-.24.35-.4v-1.77Z"/>
    <path d="m55.9,59.43c0,.18-.04.32-.12.41s-.19.13-.34.13h-3.24c0,.23.03.43.08.62.05.19.14.34.26.47.12.13.27.23.45.3.19.07.41.1.67.1s.49-.02.69-.06.37-.08.52-.12c.15-.05.27-.09.36-.13s.17-.06.23-.06c.04,0,.07,0,.09.02.02.01.04.04.06.07.02.04.03.09.03.15,0,.07,0,.15,0,.25,0,.09,0,.16,0,.22,0,.06-.01.11-.02.16,0,.04-.02.08-.04.11-.02.03-.04.06-.06.09-.03.03-.1.07-.21.11-.12.05-.26.09-.44.14-.18.05-.38.09-.62.12-.23.03-.48.05-.74.05-.47,0-.89-.06-1.25-.18-.36-.12-.65-.3-.89-.54-.24-.24-.42-.55-.53-.92-.12-.37-.18-.8-.18-1.3s.06-.9.18-1.28.3-.7.54-.97c.23-.27.52-.47.86-.61.34-.14.72-.21,1.14-.21.45,0,.83.07,1.14.2.32.13.58.31.78.55.2.23.35.51.45.83.1.32.14.66.14,1.04v.24Zm-1.46-.43c.01-.42-.07-.75-.25-.99-.18-.24-.46-.36-.84-.36-.19,0-.36.04-.5.11-.14.07-.26.17-.35.29-.09.12-.17.27-.22.43s-.08.34-.09.53h2.25Z"/>
    <path d="m61.35,61.4c0,.1,0,.19,0,.26s-.01.13-.02.18-.02.09-.04.12c-.01.03-.04.07-.09.11-.05.05-.13.1-.24.17-.12.07-.25.12-.39.18-.15.05-.31.09-.48.12-.17.03-.35.05-.53.05-.41,0-.77-.06-1.09-.19-.32-.13-.58-.32-.8-.56-.22-.25-.38-.55-.49-.91-.11-.36-.16-.77-.16-1.23,0-.53.07-1,.2-1.38.13-.39.32-.71.56-.96.24-.26.52-.44.85-.57.33-.12.68-.18,1.08-.18.16,0,.32.01.47.04.15.03.3.07.43.11.13.05.25.1.36.16.11.06.18.11.22.16.04.04.07.08.09.11s.03.07.04.12.02.11.02.18,0,.15,0,.25c0,.23-.02.39-.06.49-.04.09-.09.14-.16.14-.07,0-.14-.03-.22-.08-.08-.06-.17-.12-.27-.19-.1-.07-.23-.13-.37-.18-.14-.06-.31-.08-.51-.08-.39,0-.69.15-.9.45-.21.3-.31.74-.31,1.32,0,.29.03.54.08.76.05.22.13.4.23.55.1.15.23.26.38.33.15.07.33.11.53.11s.39-.03.54-.09c.15-.06.28-.13.39-.21.11-.08.21-.14.28-.21.08-.06.14-.09.19-.09.04,0,.07,0,.09.03s.04.06.06.11c.01.05.02.12.03.21,0,.08.01.19.01.32Z"/>
  </g>
</svg>